<svg width="32" height="32" viewBox="0 0 32 32" fill="none" xmlns="http://www.w3.org/2000/svg">
<g id="icon/x-lg">
<path id="Vector" d="M4.29204 5.70829C4.19907 5.61531 4.12531 5.50493 4.075 5.38345C4.02468 5.26197 3.99878 5.13177 3.99878 5.00029C3.99878 4.8688 4.02468 4.7386 4.075 4.61712C4.12531 4.49564 4.19907 4.38526 4.29204 4.29229C4.38502 4.19931 4.4954 4.12556 4.61688 4.07524C4.73835 4.02492 4.86855 3.99902 5.00004 3.99902C5.13153 3.99902 5.26173 4.02492 5.38321 4.07524C5.50469 4.12556 5.61507 4.19931 5.70804 4.29229L16 14.5863L26.292 4.29229C26.385 4.19931 26.4954 4.12556 26.6169 4.07524C26.7384 4.02492 26.8686 3.99902 27 3.99902C27.1315 3.99902 27.2617 4.02492 27.3832 4.07524C27.5047 4.12556 27.6151 4.19931 27.708 4.29229C27.801 4.38526 27.8748 4.49564 27.9251 4.61712C27.9754 4.7386 28.0013 4.8688 28.0013 5.00029C28.0013 5.13177 27.9754 5.26197 27.9251 5.38345C27.8748 5.50493 27.801 5.61531 27.708 5.70829L17.414 16.0003L27.708 26.2923C27.801 26.3853 27.8748 26.4956 27.9251 26.6171C27.9754 26.7386 28.0013 26.8688 28.0013 27.0003C28.0013 27.1318 27.9754 27.262 27.9251 27.3835C27.8748 27.5049 27.801 27.6153 27.708 27.7083C27.6151 27.8013 27.5047 27.875 27.3832 27.9253C27.2617 27.9757 27.1315 28.0015 27 28.0015C26.8686 28.0015 26.7384 27.9757 26.6169 27.9253C26.4954 27.875 26.385 27.8013 26.292 27.7083L16 17.4143L5.70804 27.7083C5.61507 27.8013 5.50469 27.875 5.38321 27.9253C5.26173 27.9757 5.13153 28.0015 5.00004 28.0015C4.86855 28.0015 4.73835 27.9757 4.61688 27.9253C4.4954 27.875 4.38502 27.8013 4.29204 27.7083C4.19907 27.6153 4.12531 27.5049 4.075 27.3835C4.02468 27.262 3.99878 27.1318 3.99878 27.0003C3.99878 26.8688 4.02468 26.7386 4.075 26.6171C4.12531 26.4956 4.19907 26.3853 4.29204 26.2923L14.586 16.0003L4.29204 5.70829Z" fill="white"/>
</g>
</svg>
