<svg width="32" height="32" viewBox="0 0 32 32" fill="none" xmlns="http://www.w3.org/2000/svg">
<g id="icon/dice">
<path id="Vector" d="M24.6154 3H16C13.0277 3 10.6154 5.41231 10.6154 8.38462V10.1795H7.38462C4.41231 10.1795 2 12.5918 2 15.5641V24.1795C2 27.1518 4.41231 29.5641 7.38462 29.5641H16C18.9723 29.5641 21.3846 27.1518 21.3846 24.1795V22.3846H24.6154C27.5877 22.3846 30 19.9723 30 17V8.38462C30 5.41231 27.5877 3 24.6154 3ZM19.2308 24.1795C19.2308 25.96 17.7805 27.4103 16 27.4103H7.38462C5.6041 27.4103 4.15385 25.96 4.15385 24.1795V15.5641C4.15385 13.7836 5.6041 12.3333 7.38462 12.3333H16C17.7805 12.3333 19.2308 13.7836 19.2308 15.5641V24.1795ZM27.8462 17C27.8462 18.7805 26.3959 20.2308 24.6154 20.2308H21.3846V15.5641C21.3846 12.5918 18.9723 10.1795 16 10.1795H12.7692V8.38462C12.7692 6.6041 14.2195 5.15385 16 5.15385H24.6154C26.3959 5.15385 27.8462 6.6041 27.8462 8.38462V17Z" fill="white"/>
<path id="Vector_2" d="M11.7138 18.5184H11.6959C10.96 18.5184 10.3677 19.1287 10.3677 19.8646C10.3677 20.6005 10.9779 21.2107 11.7138 21.2107C12.4497 21.2107 13.06 20.6005 13.06 19.8646C13.06 19.1287 12.4497 18.5184 11.7138 18.5184Z" fill="white"/>
<path id="Vector_3" d="M15.7523 14.4872H15.7343C14.9984 14.4872 14.4061 15.0974 14.4061 15.8333C14.4061 16.5692 15.0164 17.1795 15.7523 17.1795C16.4882 17.1795 17.0984 16.5692 17.0984 15.8333C17.0984 15.0974 16.4882 14.4872 15.7523 14.4872Z" fill="white"/>
<path id="Vector_4" d="M7.68246 14.4872H7.66451C6.92861 14.4872 6.3363 15.0974 6.3363 15.8333C6.3363 16.5692 6.94656 17.1795 7.68246 17.1795C8.41835 17.1795 9.02861 16.5692 9.02861 15.8333C9.02861 15.0974 8.41835 14.4872 7.68246 14.4872Z" fill="white"/>
<path id="Vector_5" d="M7.68246 22.5569H7.66451C6.92861 22.5569 6.3363 23.1671 6.3363 23.903C6.3363 24.6389 6.94656 25.2492 7.68246 25.2492C8.41835 25.2492 9.02861 24.6389 9.02861 23.903C9.02861 23.1671 8.41835 22.5569 7.68246 22.5569Z" fill="white"/>
<path id="Vector_6" d="M15.7523 22.5569H15.7343C14.9984 22.5569 14.4061 23.1671 14.4061 23.903C14.4061 24.6389 15.0164 25.2492 15.7523 25.2492C16.4882 25.2492 17.0984 24.6389 17.0984 23.903C17.0984 23.1671 16.4882 22.5569 15.7523 22.5569Z" fill="white"/>
</g>
</svg>
