<svg width="32" height="32" viewBox="0 0 32 32" fill="none" xmlns="http://www.w3.org/2000/svg">
<g id="logo/social/discord" clip-path="url(#clip0_4028_1681)">
<path id="Vector" d="M27.09 5.81398C25.0152 4.86114 22.8256 4.18147 20.576 3.79198C20.5556 3.78855 20.5347 3.79151 20.516 3.80046C20.4974 3.80942 20.482 3.82392 20.472 3.84198C20.19 4.34198 19.878 4.99598 19.66 5.50798C17.2352 5.1403 14.7688 5.1403 12.344 5.50798C12.1018 4.93715 11.8267 4.38087 11.52 3.84198C11.5099 3.82392 11.4945 3.80942 11.4759 3.80046C11.4573 3.79151 11.4363 3.78855 11.416 3.79198C9.16597 4.17998 6.97597 4.85998 4.90197 5.81398C4.88414 5.8206 4.86925 5.83336 4.85997 5.84998C0.711972 12.048 -0.426028 18.094 0.131972 24.064C0.135972 24.0933 0.149972 24.118 0.173972 24.138C2.58991 25.9264 5.2915 27.2924 8.16397 28.178C8.18425 28.1844 8.20605 28.1841 8.22619 28.1773C8.24633 28.1705 8.26377 28.1574 8.27597 28.14C8.8933 27.3 9.43864 26.414 9.91197 25.482C9.92181 25.4628 9.92518 25.4409 9.92157 25.4197C9.91797 25.3984 9.90759 25.3789 9.89197 25.364L9.85597 25.342C8.99469 25.0099 8.16023 24.6121 7.35997 24.152C7.33763 24.1393 7.32102 24.1186 7.31357 24.094C7.30613 24.0694 7.30842 24.0429 7.31997 24.02L7.34997 23.982C7.5193 23.8553 7.68464 23.7253 7.84597 23.592C7.86011 23.5806 7.87706 23.5733 7.89503 23.5708C7.913 23.5684 7.9313 23.5708 7.94797 23.578C13.186 25.97 18.856 25.97 24.03 23.578C24.0472 23.57 24.0662 23.5671 24.085 23.5696C24.1038 23.5721 24.1214 23.5799 24.136 23.592C24.2973 23.7253 24.4626 23.8553 24.632 23.982C24.646 23.9916 24.6574 24.0047 24.665 24.0199C24.6726 24.0352 24.6762 24.0522 24.6754 24.0692C24.6746 24.0862 24.6694 24.1028 24.6604 24.1173C24.6514 24.1318 24.6389 24.1437 24.624 24.152C23.8272 24.6193 22.9914 25.0168 22.126 25.34C22.1122 25.345 22.0997 25.3529 22.0893 25.3633C22.0789 25.3737 22.071 25.3862 22.066 25.4C22.0611 25.4133 22.0591 25.4275 22.0602 25.4416C22.0612 25.4558 22.0652 25.4695 22.072 25.482C22.552 26.412 23.102 27.3 23.706 28.14C23.7182 28.1574 23.7356 28.1705 23.7558 28.1773C23.7759 28.1841 23.7977 28.1844 23.818 28.178C26.6961 27.2973 29.4024 25.931 31.82 24.138C31.832 24.1295 31.842 24.1185 31.8492 24.1057C31.8565 24.0929 31.8608 24.0786 31.862 24.064C32.53 17.162 30.744 11.166 27.13 5.85198C27.1268 5.84291 27.1216 5.83472 27.1146 5.82811C27.1076 5.8215 27.0992 5.81665 27.09 5.81398ZM10.694 20.428C9.11597 20.428 7.81797 18.98 7.81797 17.204C7.81797 15.428 9.09197 13.978 10.694 13.978C12.308 13.978 13.594 15.438 13.57 17.204C13.57 18.98 12.296 20.428 10.694 20.428ZM21.326 20.428C19.75 20.428 18.45 18.98 18.45 17.204C18.45 15.428 19.724 13.978 21.326 13.978C22.94 13.978 24.228 15.438 24.202 17.204C24.202 18.98 22.94 20.428 21.326 20.428Z" fill="white"/>
</g>
<defs>
<clipPath id="clip0_4028_1681">
<rect width="32" height="32" fill="white"/>
</clipPath>
</defs>
</svg>
