<svg width="24" height="24" viewBox="0 0 24 24" fill="none" xmlns="http://www.w3.org/2000/svg">
<g id="icon/pencil-square">
<g id="Vector">
<path d="M23.253 2.90961C23.3931 3.0502 23.4718 3.24061 23.4718 3.43911C23.4718 3.63762 23.3931 3.82803 23.253 3.96861L21.6885 5.53461L18.6885 2.53461L20.253 0.968613C20.3936 0.82801 20.5844 0.749023 20.7832 0.749023C20.9821 0.749023 21.1729 0.82801 21.3135 0.968613L23.253 2.90811V2.90961ZM20.628 6.59361L17.628 3.59361L7.4085 13.8146C7.32594 13.8972 7.26379 13.9978 7.227 14.1086L6.0195 17.7296C5.9976 17.7956 5.99449 17.8664 6.01052 17.9341C6.02655 18.0018 6.06108 18.0637 6.11026 18.1129C6.15944 18.162 6.22133 18.1966 6.28901 18.2126C6.35668 18.2286 6.42749 18.2255 6.4935 18.2036L10.1145 16.9961C10.2251 16.9598 10.3258 16.8981 10.4085 16.8161L20.628 6.59361Z" fill="white"/>
<path fill-rule="evenodd" clip-rule="evenodd" d="M1.5 20.2496C1.5 20.8463 1.73705 21.4186 2.15901 21.8406C2.58097 22.2626 3.15326 22.4996 3.75 22.4996H20.25C20.8467 22.4996 21.419 22.2626 21.841 21.8406C22.2629 21.4186 22.5 20.8463 22.5 20.2496V11.2496C22.5 11.0507 22.421 10.8599 22.2803 10.7193C22.1397 10.5786 21.9489 10.4996 21.75 10.4996C21.5511 10.4996 21.3603 10.5786 21.2197 10.7193C21.079 10.8599 21 11.0507 21 11.2496V20.2496C21 20.4485 20.921 20.6393 20.7803 20.7799C20.6397 20.9206 20.4489 20.9996 20.25 20.9996H3.75C3.55109 20.9996 3.36032 20.9206 3.21967 20.7799C3.07902 20.6393 3 20.4485 3 20.2496V3.74961C3 3.5507 3.07902 3.35994 3.21967 3.21928C3.36032 3.07863 3.55109 2.99961 3.75 2.99961H13.5C13.6989 2.99961 13.8897 2.9206 14.0303 2.77994C14.171 2.63929 14.25 2.44853 14.25 2.24961C14.25 2.0507 14.171 1.85994 14.0303 1.71928C13.8897 1.57863 13.6989 1.49961 13.5 1.49961H3.75C3.15326 1.49961 2.58097 1.73667 2.15901 2.15862C1.73705 2.58058 1.5 3.15288 1.5 3.74961V20.2496Z" fill="white"/>
</g>
</g>
</svg>
