<svg width="32" height="32" viewBox="0 0 32 32" fill="none" xmlns="http://www.w3.org/2000/svg">
<g id="logo/social/facebook" clip-path="url(#clip0_4028_454)">
<path id="Vector" d="M32 16.098C32 7.20599 24.836 -0.00201416 16 -0.00201416C7.15997 -1.41601e-05 -0.00402832 7.20599 -0.00402832 16.1C-0.00402832 24.134 5.84797 30.794 13.496 32.002V20.752H9.43597V16.1H13.5V12.55C13.5 8.51599 15.89 6.28799 19.544 6.28799C21.296 6.28799 23.126 6.60199 23.126 6.60199V10.562H21.108C19.122 10.562 18.502 11.804 18.502 13.078V16.098H22.938L22.23 20.75H18.5V32C26.148 30.792 32 24.132 32 16.098Z" fill="white"/>
</g>
<defs>
<clipPath id="clip0_4028_454">
<rect width="32" height="32" fill="white"/>
</clipPath>
</defs>
</svg>
