<svg width="32" height="32" viewBox="0 0 32 32" fill="none" xmlns="http://www.w3.org/2000/svg">
<path d="M11.9999 24.9999C11.9999 24.7347 12.1053 24.4803 12.2928 24.2928C12.4804 24.1053 12.7347 23.9999 12.9999 23.9999H18.9999C19.2651 23.9999 19.5195 24.1053 19.707 24.2928C19.8946 24.4803 19.9999 24.7347 19.9999 24.9999C19.9999 25.2651 19.8946 25.5195 19.707 25.707C19.5195 25.8945 19.2651 25.9999 18.9999 25.9999H12.9999C12.7347 25.9999 12.4804 25.8945 12.2928 25.707C12.1053 25.5195 11.9999 25.2651 11.9999 24.9999ZM5.99993 16.1239C5.99993 13.5199 8.46993 11.5299 11.0599 11.7719C14.3461 12.0784 17.6537 12.0784 20.9399 11.7719C23.5299 11.5299 25.9999 13.5199 25.9999 16.1239V18.4379C26.0093 18.8807 25.8604 19.3124 25.5799 19.6552C25.2994 19.998 24.9058 20.2294 24.4699 20.3079C22.7799 20.6019 19.7899 20.9999 15.9999 20.9999C12.2099 20.9999 9.21993 20.5999 7.52993 20.3079C7.09402 20.2294 6.70042 19.998 6.41995 19.6552C6.13948 19.3124 5.99054 18.8807 5.99993 18.4379V16.1239ZM15.0839 14.4699C15.006 14.4566 14.926 14.4621 14.8506 14.4857C14.7751 14.5093 14.7064 14.5505 14.6499 14.6059L12.8099 16.4059C11.5584 16.3309 10.3102 16.2088 9.06793 16.0399C8.9392 16.0271 8.81052 16.0647 8.70893 16.1448C8.60734 16.2249 8.54075 16.3412 8.52314 16.4694C8.50554 16.5976 8.53829 16.7276 8.61452 16.8321C8.69075 16.9366 8.80452 17.0075 8.93193 17.0299C10.0319 17.1819 11.3959 17.3279 12.9719 17.4159C13.0413 17.4198 13.1108 17.4092 13.1759 17.3848C13.241 17.3603 13.3003 17.3225 13.3499 17.2739L14.8579 15.8019L16.5519 19.2219C16.5876 19.2936 16.64 19.3558 16.7047 19.403C16.7694 19.4503 16.8446 19.4813 16.9238 19.4935C17.003 19.5056 17.0839 19.4985 17.1598 19.4729C17.2358 19.4472 17.3044 19.4036 17.3599 19.3459L19.2239 17.4059C20.5096 17.3301 21.7919 17.2047 23.0679 17.0299C23.1953 17.0075 23.3091 16.9366 23.3853 16.8321C23.4616 16.7276 23.4943 16.5976 23.4767 16.4694C23.4591 16.3412 23.3925 16.2249 23.2909 16.1448C23.1893 16.0647 23.0607 16.0271 22.9319 16.0399C21.8559 16.1879 20.5179 16.3299 18.9719 16.4179C18.8461 16.4249 18.7275 16.4792 18.6399 16.5699L17.1319 18.1399L15.4479 14.7399C15.4128 14.6694 15.3615 14.6082 15.2983 14.5613C15.235 14.5144 15.1616 14.4831 15.0839 14.4699Z" fill="url(#paint0_linear_4172_1754)"/>
<path d="M17 3.73205C17.3813 3.51192 17.6793 3.17212 17.8478 2.76537C18.0162 2.35861 18.0458 1.90763 17.9319 1.48236C17.8179 1.0571 17.5668 0.681312 17.2175 0.413293C16.8682 0.145275 16.4403 0 16 0C15.5597 0 15.1318 0.145275 14.7825 0.413293C14.4332 0.681312 14.1821 1.0571 14.0681 1.48236C13.9542 1.90763 13.9838 2.35861 14.1522 2.76537C14.3207 3.17212 14.6187 3.51192 15 3.73205V6.00005H11C8.61305 6.00005 6.32387 6.94826 4.63604 8.63609C2.94821 10.3239 2 12.6131 2 15.0001V16.0001C1.46957 16.0001 0.960859 16.2108 0.585786 16.5858C0.210714 16.9609 0 17.4696 0 18.0001L0 22.0001C0 22.5305 0.210714 23.0392 0.585786 23.4143C0.960859 23.7893 1.46957 24.0001 2 24.0001V26.0001C2 27.0609 2.42143 28.0783 3.17157 28.8285C3.92172 29.5786 4.93913 30.0001 6 30.0001H26C27.0609 30.0001 28.0783 29.5786 28.8284 28.8285C29.5786 28.0783 30 27.0609 30 26.0001V24.0001C30.5304 24.0001 31.0391 23.7893 31.4142 23.4143C31.7893 23.0392 32 22.5305 32 22.0001V18.0001C32 17.4696 31.7893 16.9609 31.4142 16.5858C31.0391 16.2108 30.5304 16.0001 30 16.0001V15.0001C30 12.6131 29.0518 10.3239 27.364 8.63609C25.6761 6.94826 23.3869 6.00005 21 6.00005H17V3.73205ZM28 15.0001V26.0001C28 26.5305 27.7893 27.0392 27.4142 27.4143C27.0391 27.7893 26.5304 28.0001 26 28.0001H6C5.46957 28.0001 4.96086 27.7893 4.58579 27.4143C4.21071 27.0392 4 26.5305 4 26.0001V15.0001C4 13.1435 4.7375 11.3631 6.05025 10.0503C7.36301 8.73755 9.14348 8.00005 11 8.00005H21C22.8565 8.00005 24.637 8.73755 25.9497 10.0503C27.2625 11.3631 28 13.1435 28 15.0001Z" fill="url(#paint1_linear_4172_1754)"/>
<defs>
<linearGradient id="paint0_linear_4172_1754" x1="15.9999" y1="11.752" x2="15.9999" y2="25.9999" gradientUnits="userSpaceOnUse">
<stop stop-color="#FEEFD0"/>
<stop offset="1" stop-color="#FCD587"/>
</linearGradient>
<linearGradient id="paint1_linear_4172_1754" x1="16" y1="0" x2="16" y2="30.0001" gradientUnits="userSpaceOnUse">
<stop stop-color="#FEEFD0"/>
<stop offset="1" stop-color="#FCD587"/>
</linearGradient>
</defs>
</svg>
