<?xml version="1.0" encoding="utf-8"?>
<!-- Generator: Adobe Illustrator 27.9.0, SVG Export Plug-In . SVG Version: 6.00 Build 0)  -->
<svg version="1.1" id="Layer_1" xmlns="http://www.w3.org/2000/svg" xmlns:xlink="http://www.w3.org/1999/xlink" x="0px" y="0px"
	 viewBox="0 0 256 256" style="enable-background:new 0 0 256 256;" xml:space="preserve">
<style type="text/css">
	.st0{fill-rule:evenodd;clip-rule:evenodd;fill:#242424;stroke:url(#SVGID_1_);stroke-width:2;stroke-miterlimit:10;}
	
		.st1{fill-rule:evenodd;clip-rule:evenodd;fill:#242424;stroke:url(#SVGID_00000040576867265193113940000002600343697995155896_);stroke-width:2;stroke-miterlimit:10;}
	.st2{fill-rule:evenodd;clip-rule:evenodd;fill:url(#SVGID_00000048459265188159235570000016154250943974968738_);}
	.st3{fill-rule:evenodd;clip-rule:evenodd;fill:url(#SVGID_00000024699517533020389660000003951631598268918962_);}
</style>
<g>
	
		<linearGradient id="SVGID_1_" gradientUnits="userSpaceOnUse" x1="2.2745" y1="130" x2="131.0425" y2="130" gradientTransform="matrix(1 0 0 -1 0 258)">
		<stop  offset="0" style="stop-color:#FEEFD0"/>
		<stop  offset="1" style="stop-color:#FCD587"/>
	</linearGradient>
	<path class="st0" d="M130,229.4c-0.1-18.1-0.6-36.1-1-54.3c-1.2-43.2-2.8-86.3-3.2-129.5c-2.1-4.5-3.5-9.4-3.8-14.5h-1.4
		c-9.4-10.5-23.8-18.9-42.9-18.9H36.1c-15.3,0-27.7,12.4-27.7,27.7v25.7c-3.9,7.1-4.7,15.7-1.6,23.7c0.9,2.3,2.1,4.5,3.6,6.4v100.2
		c0,0.2,0,0.5-0.1,0.8c0,0.3-0.1,0.6-0.1,0.9c-5.1,5.9-7.8,13.8-6.6,22c2,13.9,13.7,24.1,27.4,24.1h35.2c9.1,0,17.2-4.4,22.3-11.3
		c5.1,6.9,13.2,11.3,22.3,11.3H124C124.9,238.5,127,233.7,130,229.4z"/>
	
		<linearGradient id="SVGID_00000036949303598439137910000014351871521885338754_" gradientUnits="userSpaceOnUse" x1="101.0941" y1="130" x2="253.7255" y2="130" gradientTransform="matrix(1 0 0 -1 0 258)">
		<stop  offset="0" style="stop-color:#FEEFD0"/>
		<stop  offset="1" style="stop-color:#FCD587"/>
	</linearGradient>
	
		<path style="fill-rule:evenodd;clip-rule:evenodd;fill:#242424;stroke:url(#SVGID_00000036949303598439137910000014351871521885338754_);stroke-width:2;stroke-miterlimit:10;" d="
		M119.2,243.7c0.5,0,0.9,0,1.3,0c0.5,0,0.9,0,1.3,0H157c6.7,0,13-2.4,17.7-6.5c4.9,4.1,9.8,4.2,16.6,4.2h33.8
		c13.2-0.6,17.9-2.4,17.9-2.4c6-1.9,6.2-2.2,9.1-5.9c2.7-7.9-4.6-7.3-4.5-31.8c0-39.2-5-108.4-0.3-149.3c0.9-8.3,2.5-18.6,2.4-21.3
		c-0.1-1.5-0.3-6.7-0.9-9c-2-7.5-13-9.4-21.3-9.4h-28.2c-10.3,0-19.7,5.7-24.4,14.7c-10.8-8.4-24.5-14.7-40.3-14.7h-12
		c-7.4,0-15.5,0.7-20.7,5.9"/>
	
		<linearGradient id="SVGID_00000040576479894026097910000014059012491448361878_" gradientUnits="userSpaceOnUse" x1="71.1894" y1="110.4776" x2="71.1894" y2="286.6256" gradientTransform="matrix(1 0 0 1 0 -71.246)">
		<stop  offset="0" style="stop-color:#FEEFD0"/>
		<stop  offset="1" style="stop-color:#FCD587"/>
	</linearGradient>
	<path style="fill-rule:evenodd;clip-rule:evenodd;fill:url(#SVGID_00000040576479894026097910000014059012491448361878_);" d="
		M37.3,39.2v28.2c1.5-6.2,19.9-6.8,24.4-6.8h3c-5.3,2.8-30.9,17.8-30.9,17.8s5.6-1.3,5.6,11.3v106.5c0,0-0.8,17.4-7.1,19.1h35.2
		c-6.6-1.7-7.1-19.1-7.1-19.1v-18.2c29.4,0,49.5-31.2,49.5-55.6V68.4c-0.5-8.8-8.6-29.2-31.2-29.2H37.3z M64.8,60.6
		c13.3,0,23.4,1.7,24.2,15.9v37C89,138,78.4,154,60.5,154V78.9C60.5,68.4,62.3,63.1,64.8,60.6z"/>
	
		<linearGradient id="SVGID_00000031179837940289989880000017985331218209162901_" gradientUnits="userSpaceOnUse" x1="175.8714" y1="42.6204" x2="175.8714" y2="218.7684" gradientTransform="matrix(1 0 0 -1 0 258)">
		<stop  offset="0" style="stop-color:#FEEFD0"/>
		<stop  offset="1" style="stop-color:#FCD587"/>
	</linearGradient>
	<path style="fill-rule:evenodd;clip-rule:evenodd;fill:url(#SVGID_00000031179837940289989880000017985331218209162901_);" d="
		M221.9,196.2V58.1c0,0,0.5-17.1,6.8-18.9h-28.2l-19.9,41.5c-6-22.1-25.1-41.5-44.8-41.5h-12l0.2,22.9c0,0,10.1-2,17.4,0
		c3.5,1,6.8,3.2,9.8,6.2L130,80.8v115.5c0,0-0.8,17.4-7.1,19.1h35.2c-6.6-1.7-7.1-19.1-7.1-19.1V68.4C168.7,87,174,136.6,174,136.6
		l26.4-60.4v120c0,0-0.5,17.4-6.8,19.1h35.2C222.5,213.6,221.9,196.2,221.9,196.2z"/>
</g>
</svg>
