<svg width="160" height="160" viewBox="0 0 160 160" fill="none" xmlns="http://www.w3.org/2000/svg">
<path d="M20 2V20H2V2H20ZM22 0H0V22H22V0Z" fill="#F5C35F"/>
<path d="M30 12V30H12V12H30ZM32 10H10V32H32V10Z" fill="#F5C35F"/>
<path d="M2.25 36H0.25V110H2.25V36Z" fill="#F5C35F"/>
<path d="M110 0H36V2H110V0Z" fill="#F5C35F"/>
<path d="M134 20H52V22H134V20Z" fill="#F5C35F"/>
<path d="M22.25 52H20.25V134H22.25V52Z" fill="#F5C35F"/>
<path d="M12 45H10V160H12V45Z" fill="#F5C35F"/>
<path d="M160 10H45V12H160V10Z" fill="#F5C35F"/>
<path d="M44.985 10C44.995 10.3325 45 10.665 45 11C45 20.0825 41.4625 28.62 35.0425 35.0425C28.62 41.465 20.0825 45 11 45C10.665 45 10.3325 44.9925 10 44.985V46.9875C10.3325 46.9975 10.665 47.0025 11 47.0025C30.8825 47.0025 47 30.885 47 11.0025C47 10.6675 46.995 10.335 46.985 10.0025H44.9825L44.985 10Z" fill="#F5C35F"/>
</svg>
